<svg width="256" height="256" viewBox="0 0 256 256" fill="none" xmlns="http://www.w3.org/2000/svg">
<path d="M0 38.4C0 24.9587 0 18.2381 2.61584 13.1042C4.9168 8.58834 8.58834 4.9168 13.1042 2.61584C18.2381 0 24.9587 0 38.4 0H217.6C231.041 0 237.762 0 242.896 2.61584C247.412 4.9168 251.083 8.58834 253.384 13.1042C256 18.2381 256 24.9587 256 38.4V217.6C256 231.041 256 237.762 253.384 242.896C251.083 247.412 247.412 251.083 242.896 253.384C237.762 256 231.041 256 217.6 256H38.4C24.9587 256 18.2381 256 13.1042 253.384C8.58834 251.083 4.9168 247.412 2.61584 242.896C0 237.762 0 231.041 0 217.6V38.4Z" fill="#333333"/>
<path d="M154 58C154 52.4772 158.477 48 164 48H184C189.523 48 194 52.4772 194 58V198C194 203.523 189.523 208 184 208H164C158.477 208 154 203.523 154 198V58Z" fill="#888888"/>
<path d="M63 58C63 52.4772 67.4772 48 73 48H93C98.5228 48 103 52.4772 103 58V198C103 203.523 98.5228 208 93 208H73C67.4772 208 63 203.523 63 198V58Z" fill="#888888"/>
<path d="M103 113L154 101V143L103 155V113Z" fill="#D9D9D9" fill-opacity="0.15"/>
</svg>
