<svg width="845" height="256" viewBox="0 0 845 256" fill="none" xmlns="http://www.w3.org/2000/svg">
<path d="M0 38.4C0 24.9587 0 18.2381 2.61584 13.1042C4.9168 8.58834 8.58834 4.9168 13.1042 2.61584C18.2381 0 24.9587 0 38.4 0H217.6C231.041 0 237.762 0 242.896 2.61584C247.412 4.9168 251.083 8.58834 253.384 13.1042C256 18.2381 256 24.9587 256 38.4V217.6C256 231.041 256 237.762 253.384 242.896C251.083 247.412 247.412 251.083 242.896 253.384C237.762 256 231.041 256 217.6 256H38.4C24.9587 256 18.2381 256 13.1042 253.384C8.58834 251.083 4.9168 247.412 2.61584 242.896C0 237.762 0 231.041 0 217.6V38.4Z" fill="#333333"/>
<path d="M154 58C154 52.4772 158.477 48 164 48H184C189.523 48 194 52.4772 194 58V198C194 203.523 189.523 208 184 208H164C158.477 208 154 203.523 154 198V58Z" fill="#888888"/>
<path d="M63 58C63 52.4772 67.4772 48 73 48H93C98.5228 48 103 52.4772 103 58V198C103 203.523 98.5228 208 93 208H73C67.4772 208 63 203.523 63 198V58Z" fill="#888888"/>
<path d="M103 113L154 101V143L103 155V113Z" fill="#D9D9D9" fill-opacity="0.15"/>
<path d="M283.091 175V81.9091H302.773V120.318H342.727V81.9091H362.364V175H342.727V136.545H302.773V175H283.091ZM398.136 176.318C393.682 176.318 389.712 175.545 386.227 174C382.742 172.424 379.985 170.106 377.955 167.045C375.955 163.955 374.955 160.106 374.955 155.5C374.955 151.621 375.667 148.364 377.091 145.727C378.515 143.091 380.455 140.97 382.909 139.364C385.364 137.758 388.152 136.545 391.273 135.727C394.424 134.909 397.727 134.333 401.182 134C405.242 133.576 408.515 133.182 411 132.818C413.485 132.424 415.288 131.848 416.409 131.091C417.53 130.333 418.091 129.212 418.091 127.727V127.455C418.091 124.576 417.182 122.348 415.364 120.773C413.576 119.197 411.03 118.409 407.727 118.409C404.242 118.409 401.47 119.182 399.409 120.727C397.348 122.242 395.985 124.152 395.318 126.455L377.409 125C378.318 120.758 380.106 117.091 382.773 114C385.439 110.879 388.879 108.485 393.091 106.818C397.333 105.121 402.242 104.273 407.818 104.273C411.697 104.273 415.409 104.727 418.955 105.636C422.53 106.545 425.697 107.955 428.455 109.864C431.242 111.773 433.439 114.227 435.045 117.227C436.652 120.197 437.455 123.758 437.455 127.909V175H419.091V165.318H418.545C417.424 167.5 415.924 169.424 414.045 171.091C412.167 172.727 409.909 174.015 407.273 174.955C404.636 175.864 401.591 176.318 398.136 176.318ZM403.682 162.955C406.53 162.955 409.045 162.394 411.227 161.273C413.409 160.121 415.121 158.576 416.364 156.636C417.606 154.697 418.227 152.5 418.227 150.045V142.636C417.621 143.03 416.788 143.394 415.727 143.727C414.697 144.03 413.53 144.318 412.227 144.591C410.924 144.833 409.621 145.061 408.318 145.273C407.015 145.455 405.833 145.621 404.773 145.773C402.5 146.106 400.515 146.636 398.818 147.364C397.121 148.091 395.803 149.076 394.864 150.318C393.924 151.53 393.455 153.045 393.455 154.864C393.455 157.5 394.409 159.515 396.318 160.909C398.258 162.273 400.712 162.955 403.682 162.955ZM452.477 175V105.182H471.25V117.364H471.977C473.25 113.03 475.386 109.758 478.386 107.545C481.386 105.303 484.841 104.182 488.75 104.182C489.72 104.182 490.765 104.242 491.886 104.364C493.008 104.485 493.992 104.652 494.841 104.864V122.045C493.932 121.773 492.674 121.53 491.068 121.318C489.462 121.106 487.992 121 486.659 121C483.811 121 481.265 121.621 479.023 122.864C476.811 124.076 475.053 125.773 473.75 127.955C472.477 130.136 471.841 132.652 471.841 135.5V175H452.477ZM504.852 175V105.182H523.307V117.5H524.125C525.58 113.409 528.004 110.182 531.398 107.818C534.792 105.455 538.852 104.273 543.58 104.273C548.367 104.273 552.443 105.47 555.807 107.864C559.17 110.227 561.413 113.439 562.534 117.5H563.261C564.686 113.5 567.261 110.303 570.989 107.909C574.746 105.485 579.186 104.273 584.307 104.273C590.822 104.273 596.11 106.348 600.17 110.5C604.261 114.621 606.307 120.47 606.307 128.045V175H586.989V131.864C586.989 127.985 585.958 125.076 583.898 123.136C581.837 121.197 579.261 120.227 576.17 120.227C572.655 120.227 569.913 121.348 567.943 123.591C565.973 125.803 564.989 128.727 564.989 132.364V175H546.216V131.455C546.216 128.03 545.231 125.303 543.261 123.273C541.322 121.242 538.761 120.227 535.58 120.227C533.428 120.227 531.489 120.773 529.761 121.864C528.064 122.924 526.716 124.424 525.716 126.364C524.716 128.273 524.216 130.515 524.216 133.091V175H504.852ZM653.148 176.364C646.087 176.364 639.981 174.864 634.83 171.864C629.708 168.833 625.754 164.621 622.966 159.227C620.178 153.803 618.784 147.515 618.784 140.364C618.784 133.152 620.178 126.848 622.966 121.455C625.754 116.03 629.708 111.818 634.83 108.818C639.981 105.788 646.087 104.273 653.148 104.273C660.208 104.273 666.299 105.788 671.42 108.818C676.572 111.818 680.542 116.03 683.33 121.455C686.117 126.848 687.511 133.152 687.511 140.364C687.511 147.515 686.117 153.803 683.33 159.227C680.542 164.621 676.572 168.833 671.42 171.864C666.299 174.864 660.208 176.364 653.148 176.364ZM653.239 161.364C656.451 161.364 659.133 160.455 661.284 158.636C663.436 156.788 665.057 154.273 666.148 151.091C667.269 147.909 667.83 144.288 667.83 140.227C667.83 136.167 667.269 132.545 666.148 129.364C665.057 126.182 663.436 123.667 661.284 121.818C659.133 119.97 656.451 119.045 653.239 119.045C649.996 119.045 647.269 119.97 645.057 121.818C642.875 123.667 641.223 126.182 640.102 129.364C639.011 132.545 638.466 136.167 638.466 140.227C638.466 144.288 639.011 147.909 640.102 151.091C641.223 154.273 642.875 156.788 645.057 158.636C647.269 160.455 649.996 161.364 653.239 161.364ZM719.466 134.636V175H700.102V105.182H718.557V117.5H719.375C720.92 113.439 723.511 110.227 727.148 107.864C730.784 105.47 735.193 104.273 740.375 104.273C745.223 104.273 749.451 105.333 753.057 107.455C756.663 109.576 759.466 112.606 761.466 116.545C763.466 120.455 764.466 125.121 764.466 130.545V175H745.102V134C745.133 129.727 744.042 126.394 741.83 124C739.617 121.576 736.572 120.364 732.693 120.364C730.087 120.364 727.784 120.924 725.784 122.045C723.814 123.167 722.269 124.803 721.148 126.955C720.057 129.076 719.496 131.636 719.466 134.636ZM789.182 201.182C786.727 201.182 784.424 200.985 782.273 200.591C780.152 200.227 778.394 199.758 777 199.182L781.364 184.727C783.636 185.424 785.682 185.803 787.5 185.864C789.348 185.924 790.939 185.5 792.273 184.591C793.636 183.682 794.742 182.136 795.591 179.955L796.727 177L771.682 105.182H792.045L806.5 156.455H807.227L821.818 105.182H842.318L815.182 182.545C813.879 186.303 812.106 189.576 809.864 192.364C807.652 195.182 804.848 197.348 801.455 198.864C798.061 200.409 793.97 201.182 789.182 201.182Z" fill="#888888"/>
</svg>
