<svg width="131" height="160" viewBox="0 0 131 160" fill="none" xmlns="http://www.w3.org/2000/svg">
<g clip-path="url(#clip0_1_2)">
<path d="M91 10C91 4.47715 95.4772 0 101 0H121C126.523 0 131 4.47715 131 10V150C131 155.523 126.523 160 121 160H101C95.4772 160 91 155.523 91 150V10Z" fill="white"/>
<path d="M0 10C0 4.47715 4.47715 0 10 0H30C35.5228 0 40 4.47715 40 10V150C40 155.523 35.5228 160 30 160H10C4.47715 160 0 155.523 0 150V10Z" fill="white"/>
<path d="M40 65L91 53V95L40 107V65Z" fill="white"/>
</g>
<defs>
<clipPath id="clip0_1_2">
<rect width="131" height="160" fill="white"/>
</clipPath>
</defs>
</svg>
